<mxfile>
    <diagram id="dBBwZZ7qTZV8Y8YcayvF" name="Page-1">
        <mxGraphModel dx="470" dy="398" grid="1" gridSize="10" guides="1" tooltips="1" connect="1" arrows="1" fold="1" page="1" pageScale="1" pageWidth="1169" pageHeight="827" math="0" shadow="0">
            <root>
                <mxCell id="0"/>
                <mxCell id="1" parent="0"/>
                <mxCell id="2" value="User" style="shape=umlLifeline;participant=umlActor;perimeter=lifelinePerimeter;whiteSpace=wrap;html=1;container=1;collapsible=0;recursiveResize=0;verticalAlign=top;spacingTop=36;outlineConnect=0;" parent="1" vertex="1">
                    <mxGeometry x="69" y="40" width="20" height="260" as="geometry"/>
                </mxCell>
                <mxCell id="9" value="" style="html=1;points=[];perimeter=orthogonalPerimeter;" parent="2" vertex="1">
                    <mxGeometry x="5" y="90" width="10" height="40" as="geometry"/>
                </mxCell>
                <mxCell id="21" value="" style="html=1;points=[];perimeter=orthogonalPerimeter;" parent="2" vertex="1">
                    <mxGeometry x="5" y="220" width="10" height="20" as="geometry"/>
                </mxCell>
                <mxCell id="4" value="&lt;u&gt;:LogIn&lt;/u&gt;" style="shape=umlLifeline;perimeter=lifelinePerimeter;whiteSpace=wrap;html=1;container=1;collapsible=0;recursiveResize=0;outlineConnect=0;" parent="1" vertex="1">
                    <mxGeometry x="139" y="40" width="100" height="260" as="geometry"/>
                </mxCell>
                <mxCell id="11" value="" style="html=1;points=[];perimeter=orthogonalPerimeter;" parent="4" vertex="1">
                    <mxGeometry x="45" y="90" width="10" height="40" as="geometry"/>
                </mxCell>
                <mxCell id="19" value="" style="html=1;points=[];perimeter=orthogonalPerimeter;" parent="4" vertex="1">
                    <mxGeometry x="45" y="200" width="10" height="40" as="geometry"/>
                </mxCell>
                <mxCell id="5" value="&lt;u&gt;:UsersCtrlr&lt;/u&gt;" style="shape=umlLifeline;perimeter=lifelinePerimeter;whiteSpace=wrap;html=1;container=1;collapsible=0;recursiveResize=0;outlineConnect=0;" parent="1" vertex="1">
                    <mxGeometry x="289" y="40" width="100" height="260" as="geometry"/>
                </mxCell>
                <mxCell id="13" value="" style="html=1;points=[];perimeter=orthogonalPerimeter;" parent="5" vertex="1">
                    <mxGeometry x="45" y="110" width="10" height="90" as="geometry"/>
                </mxCell>
                <mxCell id="6" value="&lt;u&gt;:Database&lt;/u&gt;" style="shape=umlLifeline;perimeter=lifelinePerimeter;whiteSpace=wrap;html=1;container=1;collapsible=0;recursiveResize=0;outlineConnect=0;" parent="1" vertex="1">
                    <mxGeometry x="439" y="40" width="100" height="260" as="geometry"/>
                </mxCell>
                <mxCell id="15" value="" style="html=1;points=[];perimeter=orthogonalPerimeter;" parent="6" vertex="1">
                    <mxGeometry x="45" y="130" width="10" height="50" as="geometry"/>
                </mxCell>
                <mxCell id="12" value="1:FillForm()" style="html=1;verticalAlign=bottom;endArrow=block;" parent="1" edge="1">
                    <mxGeometry width="80" relative="1" as="geometry">
                        <mxPoint x="79" y="130" as="sourcePoint"/>
                        <mxPoint x="188.5" y="130" as="targetPoint"/>
                    </mxGeometry>
                </mxCell>
                <mxCell id="14" value="2:ReadData()" style="html=1;verticalAlign=bottom;endArrow=block;entryX=0.5;entryY=0;entryDx=0;entryDy=0;entryPerimeter=0;" parent="1" target="13" edge="1">
                    <mxGeometry width="80" relative="1" as="geometry">
                        <mxPoint x="194" y="150" as="sourcePoint"/>
                        <mxPoint x="329" y="150" as="targetPoint"/>
                    </mxGeometry>
                </mxCell>
                <mxCell id="16" value="3:ValidateData()" style="html=1;verticalAlign=bottom;endArrow=block;" parent="1" target="6" edge="1">
                    <mxGeometry width="80" relative="1" as="geometry">
                        <mxPoint x="344" y="170" as="sourcePoint"/>
                        <mxPoint x="424" y="170" as="targetPoint"/>
                    </mxGeometry>
                </mxCell>
                <mxCell id="17" value="4:AllowAccess()" style="html=1;verticalAlign=bottom;endArrow=open;dashed=1;endSize=8;" parent="1" target="13" edge="1">
                    <mxGeometry relative="1" as="geometry">
                        <mxPoint x="489" y="220" as="sourcePoint"/>
                        <mxPoint x="409" y="220" as="targetPoint"/>
                    </mxGeometry>
                </mxCell>
                <mxCell id="18" value="5:ConfirmAccess()" style="html=1;verticalAlign=bottom;endArrow=open;dashed=1;endSize=8;entryX=1;entryY=0.025;entryDx=0;entryDy=0;entryPerimeter=0;" parent="1" target="19" edge="1">
                    <mxGeometry relative="1" as="geometry">
                        <mxPoint x="339" y="240" as="sourcePoint"/>
                        <mxPoint x="259" y="240" as="targetPoint"/>
                    </mxGeometry>
                </mxCell>
                <mxCell id="22" value="6:ShowRoleHome()" style="html=1;verticalAlign=bottom;endArrow=open;dashed=1;endSize=8;entryX=0.9;entryY=0.1;entryDx=0;entryDy=0;entryPerimeter=0;" parent="1" target="21" edge="1">
                    <mxGeometry relative="1" as="geometry">
                        <mxPoint x="184" y="260" as="sourcePoint"/>
                        <mxPoint x="104" y="260" as="targetPoint"/>
                    </mxGeometry>
                </mxCell>
                <mxCell id="23" value="&lt;b&gt;&lt;u&gt;User Log In&lt;/u&gt;&lt;/b&gt;" style="text;html=1;align=center;verticalAlign=middle;resizable=0;points=[];autosize=1;" parent="1" vertex="1">
                    <mxGeometry x="245" y="10" width="80" height="20" as="geometry"/>
                </mxCell>
                <mxCell id="41" value="Employee" style="shape=umlLifeline;participant=umlActor;perimeter=lifelinePerimeter;whiteSpace=wrap;html=1;container=1;collapsible=0;recursiveResize=0;verticalAlign=top;spacingTop=36;outlineConnect=0;" parent="1" vertex="1">
                    <mxGeometry x="629" y="40" width="20" height="360" as="geometry"/>
                </mxCell>
                <mxCell id="42" value="" style="html=1;points=[];perimeter=orthogonalPerimeter;" parent="41" vertex="1">
                    <mxGeometry x="5" y="90" width="10" height="30" as="geometry"/>
                </mxCell>
                <mxCell id="76" value="" style="html=1;points=[];perimeter=orthogonalPerimeter;" parent="41" vertex="1">
                    <mxGeometry x="5" y="140" width="10" height="30" as="geometry"/>
                </mxCell>
                <mxCell id="91" value="" style="html=1;points=[];perimeter=orthogonalPerimeter;" parent="41" vertex="1">
                    <mxGeometry x="5" y="320" width="10" height="30" as="geometry"/>
                </mxCell>
                <mxCell id="44" value="&lt;u&gt;:CourseCatalog&lt;/u&gt;" style="shape=umlLifeline;perimeter=lifelinePerimeter;whiteSpace=wrap;html=1;container=1;collapsible=0;recursiveResize=0;outlineConnect=0;" parent="1" vertex="1">
                    <mxGeometry x="699" y="40" width="100" height="360" as="geometry"/>
                </mxCell>
                <mxCell id="45" value="" style="html=1;points=[];perimeter=orthogonalPerimeter;" parent="44" vertex="1">
                    <mxGeometry x="45" y="90" width="10" height="30" as="geometry"/>
                </mxCell>
                <mxCell id="78" value="" style="html=1;points=[];perimeter=orthogonalPerimeter;" parent="44" vertex="1">
                    <mxGeometry x="45" y="140" width="10" height="30" as="geometry"/>
                </mxCell>
                <mxCell id="89" value="" style="html=1;points=[];perimeter=orthogonalPerimeter;" parent="44" vertex="1">
                    <mxGeometry x="45" y="300" width="10" height="20" as="geometry"/>
                </mxCell>
                <mxCell id="47" value="&lt;u&gt;:CoursesCtrlr&lt;/u&gt;" style="shape=umlLifeline;perimeter=lifelinePerimeter;whiteSpace=wrap;html=1;container=1;collapsible=0;recursiveResize=0;outlineConnect=0;" parent="1" vertex="1">
                    <mxGeometry x="919" y="40" width="100" height="360" as="geometry"/>
                </mxCell>
                <mxCell id="48" value="" style="html=1;points=[];perimeter=orthogonalPerimeter;" parent="47" vertex="1">
                    <mxGeometry x="45" y="160" width="10" height="110" as="geometry"/>
                </mxCell>
                <mxCell id="49" value="&lt;u&gt;:Database&lt;/u&gt;" style="shape=umlLifeline;perimeter=lifelinePerimeter;whiteSpace=wrap;html=1;container=1;collapsible=0;recursiveResize=0;outlineConnect=0;" parent="1" vertex="1">
                    <mxGeometry x="1069" y="40" width="100" height="360" as="geometry"/>
                </mxCell>
                <mxCell id="50" value="" style="html=1;points=[];perimeter=orthogonalPerimeter;" parent="49" vertex="1">
                    <mxGeometry x="45" y="180" width="10" height="30" as="geometry"/>
                </mxCell>
                <mxCell id="51" value="1:SearchCourse()" style="html=1;verticalAlign=bottom;endArrow=block;" parent="1" edge="1">
                    <mxGeometry width="80" relative="1" as="geometry">
                        <mxPoint x="639" y="130" as="sourcePoint"/>
                        <mxPoint x="748.5" y="130" as="targetPoint"/>
                    </mxGeometry>
                </mxCell>
                <mxCell id="57" value="&lt;b&gt;&lt;u&gt;Inscription to a course&lt;/u&gt;&lt;/b&gt;" style="text;html=1;align=center;verticalAlign=middle;resizable=0;points=[];autosize=1;" parent="1" vertex="1">
                    <mxGeometry x="775" y="10" width="140" height="20" as="geometry"/>
                </mxCell>
                <mxCell id="79" value="2:FillForm()" style="html=1;verticalAlign=bottom;endArrow=block;" parent="1" target="78" edge="1">
                    <mxGeometry width="80" relative="1" as="geometry">
                        <mxPoint x="640" y="180" as="sourcePoint"/>
                        <mxPoint x="720" y="180" as="targetPoint"/>
                    </mxGeometry>
                </mxCell>
                <mxCell id="80" value="3:ReadData()" style="html=1;verticalAlign=bottom;endArrow=block;" parent="1" target="47" edge="1">
                    <mxGeometry width="80" relative="1" as="geometry">
                        <mxPoint x="754" y="200" as="sourcePoint"/>
                        <mxPoint x="834" y="200" as="targetPoint"/>
                    </mxGeometry>
                </mxCell>
                <mxCell id="83" value="4:ValidateData()" style="html=1;verticalAlign=bottom;endArrow=block;" parent="1" target="49" edge="1">
                    <mxGeometry width="80" relative="1" as="geometry">
                        <mxPoint x="974" y="220" as="sourcePoint"/>
                        <mxPoint x="1054" y="220" as="targetPoint"/>
                    </mxGeometry>
                </mxCell>
                <mxCell id="84" value="5:ConfirmData()" style="html=1;verticalAlign=bottom;endArrow=open;dashed=1;endSize=8;" parent="1" target="48" edge="1">
                    <mxGeometry relative="1" as="geometry">
                        <mxPoint x="1120" y="250" as="sourcePoint"/>
                        <mxPoint x="1000" y="250" as="targetPoint"/>
                    </mxGeometry>
                </mxCell>
                <mxCell id="90" value="7:SendApproval()" style="html=1;verticalAlign=bottom;endArrow=open;dashed=1;endSize=8;exitX=0;exitY=1.014;exitDx=0;exitDy=0;exitPerimeter=0;" parent="1" source="146" target="44" edge="1">
                    <mxGeometry relative="1" as="geometry">
                        <mxPoint x="890" y="340" as="sourcePoint"/>
                        <mxPoint x="810" y="340" as="targetPoint"/>
                    </mxGeometry>
                </mxCell>
                <mxCell id="92" value="8:Notify()" style="html=1;verticalAlign=bottom;endArrow=open;dashed=1;endSize=8;entryX=1;entryY=0;entryDx=0;entryDy=0;entryPerimeter=0;" parent="1" target="91" edge="1">
                    <mxGeometry relative="1" as="geometry">
                        <mxPoint x="740" y="360" as="sourcePoint"/>
                        <mxPoint x="660" y="360" as="targetPoint"/>
                    </mxGeometry>
                </mxCell>
                <mxCell id="93" value="Employee" style="shape=umlLifeline;participant=umlActor;perimeter=lifelinePerimeter;whiteSpace=wrap;html=1;container=1;collapsible=0;recursiveResize=0;verticalAlign=top;spacingTop=36;outlineConnect=0;" parent="1" vertex="1">
                    <mxGeometry x="50" y="370" width="20" height="340" as="geometry"/>
                </mxCell>
                <mxCell id="94" value="" style="html=1;points=[];perimeter=orthogonalPerimeter;" parent="93" vertex="1">
                    <mxGeometry x="5" y="90" width="10" height="40" as="geometry"/>
                </mxCell>
                <mxCell id="95" value="" style="html=1;points=[];perimeter=orthogonalPerimeter;" parent="93" vertex="1">
                    <mxGeometry x="5" y="220" width="10" height="20" as="geometry"/>
                </mxCell>
                <mxCell id="149" value="" style="html=1;points=[];perimeter=orthogonalPerimeter;" parent="93" vertex="1">
                    <mxGeometry x="5" y="300" width="10" height="20" as="geometry"/>
                </mxCell>
                <mxCell id="96" value="&lt;u&gt;:CourseLesson&lt;/u&gt;" style="shape=umlLifeline;perimeter=lifelinePerimeter;whiteSpace=wrap;html=1;container=1;collapsible=0;recursiveResize=0;outlineConnect=0;" parent="1" vertex="1">
                    <mxGeometry x="120" y="370" width="100" height="340" as="geometry"/>
                </mxCell>
                <mxCell id="97" value="" style="html=1;points=[];perimeter=orthogonalPerimeter;" parent="96" vertex="1">
                    <mxGeometry x="45" y="90" width="10" height="40" as="geometry"/>
                </mxCell>
                <mxCell id="98" value="" style="html=1;points=[];perimeter=orthogonalPerimeter;" parent="96" vertex="1">
                    <mxGeometry x="45" y="200" width="10" height="40" as="geometry"/>
                </mxCell>
                <mxCell id="99" value=":&lt;u&gt;CoursesCtrlr&lt;/u&gt;" style="shape=umlLifeline;perimeter=lifelinePerimeter;whiteSpace=wrap;html=1;container=1;collapsible=0;recursiveResize=0;outlineConnect=0;" parent="1" vertex="1">
                    <mxGeometry x="270" y="370" width="100" height="340" as="geometry"/>
                </mxCell>
                <mxCell id="100" value="" style="html=1;points=[];perimeter=orthogonalPerimeter;" parent="99" vertex="1">
                    <mxGeometry x="45" y="110" width="10" height="90" as="geometry"/>
                </mxCell>
                <mxCell id="148" value="" style="html=1;points=[];perimeter=orthogonalPerimeter;" parent="99" vertex="1">
                    <mxGeometry x="45" y="240" width="10" height="60" as="geometry"/>
                </mxCell>
                <mxCell id="152" value="7:CheckExpiration()" style="html=1;verticalAlign=bottom;endArrow=open;dashed=1;endSize=8;edgeStyle=orthogonalEdgeStyle;curved=1;entryX=1;entryY=0.922;entryDx=0;entryDy=0;entryPerimeter=0;exitX=1;exitY=0.078;exitDx=0;exitDy=0;exitPerimeter=0;" parent="99" source="148" target="148" edge="1">
                    <mxGeometry x="0.1684" y="8" relative="1" as="geometry">
                        <mxPoint x="150" y="280" as="sourcePoint"/>
                        <mxPoint x="70" y="280" as="targetPoint"/>
                        <Array as="points">
                            <mxPoint x="110" y="270"/>
                        </Array>
                        <mxPoint as="offset"/>
                    </mxGeometry>
                </mxCell>
                <mxCell id="103" value="1:SendEvaluation()" style="html=1;verticalAlign=bottom;endArrow=block;" parent="1" edge="1">
                    <mxGeometry width="80" relative="1" as="geometry">
                        <mxPoint x="60" y="460" as="sourcePoint"/>
                        <mxPoint x="169.5" y="460" as="targetPoint"/>
                    </mxGeometry>
                </mxCell>
                <mxCell id="104" value="2:SendToReview()" style="html=1;verticalAlign=bottom;endArrow=block;entryX=0.5;entryY=0;entryDx=0;entryDy=0;entryPerimeter=0;" parent="1" target="100" edge="1">
                    <mxGeometry width="80" relative="1" as="geometry">
                        <mxPoint x="175" y="480" as="sourcePoint"/>
                        <mxPoint x="310" y="480" as="targetPoint"/>
                    </mxGeometry>
                </mxCell>
                <mxCell id="105" value="3:SendMail()" style="html=1;verticalAlign=bottom;endArrow=block;" parent="1" edge="1">
                    <mxGeometry width="80" relative="1" as="geometry">
                        <mxPoint x="325" y="500" as="sourcePoint"/>
                        <mxPoint x="469.5" y="500" as="targetPoint"/>
                    </mxGeometry>
                </mxCell>
                <mxCell id="106" value="4:SendResults()" style="html=1;verticalAlign=bottom;endArrow=open;dashed=1;endSize=8;" parent="1" target="100" edge="1">
                    <mxGeometry relative="1" as="geometry">
                        <mxPoint x="470" y="550" as="sourcePoint"/>
                        <mxPoint x="390" y="550" as="targetPoint"/>
                    </mxGeometry>
                </mxCell>
                <mxCell id="107" value="5:NotifyResults()" style="html=1;verticalAlign=bottom;endArrow=open;dashed=1;endSize=8;entryX=1;entryY=0.025;entryDx=0;entryDy=0;entryPerimeter=0;" parent="1" target="98" edge="1">
                    <mxGeometry relative="1" as="geometry">
                        <mxPoint x="320" y="570" as="sourcePoint"/>
                        <mxPoint x="240" y="570" as="targetPoint"/>
                    </mxGeometry>
                </mxCell>
                <mxCell id="108" value="6:ShowCertificate()" style="html=1;verticalAlign=bottom;endArrow=open;dashed=1;endSize=8;entryX=0.9;entryY=0.1;entryDx=0;entryDy=0;entryPerimeter=0;" parent="1" target="95" edge="1">
                    <mxGeometry relative="1" as="geometry">
                        <mxPoint x="165" y="590" as="sourcePoint"/>
                        <mxPoint x="85" y="590" as="targetPoint"/>
                    </mxGeometry>
                </mxCell>
                <mxCell id="109" value="&lt;b&gt;&lt;u&gt;Course Certification&lt;/u&gt;&lt;/b&gt;" style="text;html=1;align=center;verticalAlign=middle;resizable=0;points=[];autosize=1;" parent="1" vertex="1">
                    <mxGeometry x="201" y="340" width="130" height="20" as="geometry"/>
                </mxCell>
                <mxCell id="112" value="Coordinador" style="shape=umlLifeline;participant=umlActor;perimeter=lifelinePerimeter;whiteSpace=wrap;html=1;container=1;collapsible=0;recursiveResize=0;verticalAlign=top;spacingTop=36;outlineConnect=0;" parent="1" vertex="1">
                    <mxGeometry x="460" y="370" width="20" height="340" as="geometry"/>
                </mxCell>
                <mxCell id="113" value="" style="html=1;points=[];perimeter=orthogonalPerimeter;" parent="112" vertex="1">
                    <mxGeometry x="5" y="130" width="10" height="70" as="geometry"/>
                </mxCell>
                <mxCell id="118" value="Coordinator" style="shape=umlLifeline;participant=umlActor;perimeter=lifelinePerimeter;whiteSpace=wrap;html=1;container=1;collapsible=0;recursiveResize=0;verticalAlign=top;spacingTop=36;outlineConnect=0;" parent="1" vertex="1">
                    <mxGeometry x="629" y="450" width="20" height="260" as="geometry"/>
                </mxCell>
                <mxCell id="119" value="" style="html=1;points=[];perimeter=orthogonalPerimeter;" parent="118" vertex="1">
                    <mxGeometry x="5" y="90" width="10" height="30" as="geometry"/>
                </mxCell>
                <mxCell id="143" value="" style="html=1;points=[];perimeter=orthogonalPerimeter;" parent="118" vertex="1">
                    <mxGeometry x="5" y="210" width="10" height="30" as="geometry"/>
                </mxCell>
                <mxCell id="122" value="&lt;u&gt;:AddCourse&lt;/u&gt;" style="shape=umlLifeline;perimeter=lifelinePerimeter;whiteSpace=wrap;html=1;container=1;collapsible=0;recursiveResize=0;outlineConnect=0;" parent="1" vertex="1">
                    <mxGeometry x="699" y="450" width="100" height="260" as="geometry"/>
                </mxCell>
                <mxCell id="123" value="" style="html=1;points=[];perimeter=orthogonalPerimeter;" parent="122" vertex="1">
                    <mxGeometry x="45" y="90" width="10" height="30" as="geometry"/>
                </mxCell>
                <mxCell id="142" value="" style="html=1;points=[];perimeter=orthogonalPerimeter;" parent="122" vertex="1">
                    <mxGeometry x="45" y="190" width="10" height="40" as="geometry"/>
                </mxCell>
                <mxCell id="126" value="&lt;u&gt;:CoursesCtrlr&lt;/u&gt;" style="shape=umlLifeline;perimeter=lifelinePerimeter;whiteSpace=wrap;html=1;container=1;collapsible=0;recursiveResize=0;outlineConnect=0;" parent="1" vertex="1">
                    <mxGeometry x="849" y="450" width="100" height="260" as="geometry"/>
                </mxCell>
                <mxCell id="127" value="" style="html=1;points=[];perimeter=orthogonalPerimeter;" parent="126" vertex="1">
                    <mxGeometry x="45" y="110" width="10" height="80" as="geometry"/>
                </mxCell>
                <mxCell id="129" value="&lt;u&gt;:Database&lt;/u&gt;" style="shape=umlLifeline;perimeter=lifelinePerimeter;whiteSpace=wrap;html=1;container=1;collapsible=0;recursiveResize=0;outlineConnect=0;" parent="1" vertex="1">
                    <mxGeometry x="999" y="450" width="100" height="260" as="geometry"/>
                </mxCell>
                <mxCell id="130" value="" style="html=1;points=[];perimeter=orthogonalPerimeter;" parent="129" vertex="1">
                    <mxGeometry x="45" y="130" width="10" height="40" as="geometry"/>
                </mxCell>
                <mxCell id="131" value="1:FillForm()" style="html=1;verticalAlign=bottom;endArrow=block;" parent="1" edge="1">
                    <mxGeometry width="80" relative="1" as="geometry">
                        <mxPoint x="639" y="540" as="sourcePoint"/>
                        <mxPoint x="748.5" y="540" as="targetPoint"/>
                    </mxGeometry>
                </mxCell>
                <mxCell id="132" value="&lt;b&gt;&lt;u&gt;Add a new Course&lt;/u&gt;&lt;/b&gt;" style="text;html=1;align=center;verticalAlign=middle;resizable=0;points=[];autosize=1;" parent="1" vertex="1">
                    <mxGeometry x="785" y="420" width="120" height="20" as="geometry"/>
                </mxCell>
                <mxCell id="134" value="2:SendData()" style="html=1;verticalAlign=bottom;endArrow=block;" parent="1" edge="1">
                    <mxGeometry width="80" relative="1" as="geometry">
                        <mxPoint x="754" y="560" as="sourcePoint"/>
                        <mxPoint x="898.5" y="560" as="targetPoint"/>
                    </mxGeometry>
                </mxCell>
                <mxCell id="139" value="3:RegisterData()" style="html=1;verticalAlign=bottom;endArrow=block;" parent="1" target="129" edge="1">
                    <mxGeometry width="80" relative="1" as="geometry">
                        <mxPoint x="904" y="580" as="sourcePoint"/>
                        <mxPoint x="984" y="580" as="targetPoint"/>
                    </mxGeometry>
                </mxCell>
                <mxCell id="140" value="4:SendConfirmation()" style="html=1;verticalAlign=bottom;endArrow=open;dashed=1;endSize=8;entryX=1;entryY=0.41;entryDx=0;entryDy=0;entryPerimeter=0;" parent="1" edge="1">
                    <mxGeometry relative="1" as="geometry">
                        <mxPoint x="1044" y="620" as="sourcePoint"/>
                        <mxPoint x="904" y="621" as="targetPoint"/>
                    </mxGeometry>
                </mxCell>
                <mxCell id="141" value="5:SendMessage()" style="html=1;verticalAlign=bottom;endArrow=open;dashed=1;endSize=8;" parent="1" target="122" edge="1">
                    <mxGeometry relative="1" as="geometry">
                        <mxPoint x="900" y="640" as="sourcePoint"/>
                        <mxPoint x="820" y="640" as="targetPoint"/>
                    </mxGeometry>
                </mxCell>
                <mxCell id="144" value="6:ShowSuccess()" style="html=1;verticalAlign=bottom;endArrow=open;dashed=1;endSize=8;" parent="1" edge="1">
                    <mxGeometry relative="1" as="geometry">
                        <mxPoint x="744.5" y="660" as="sourcePoint"/>
                        <mxPoint x="640" y="660" as="targetPoint"/>
                    </mxGeometry>
                </mxCell>
                <mxCell id="145" value="Coordinator" style="shape=umlLifeline;participant=umlActor;perimeter=lifelinePerimeter;whiteSpace=wrap;html=1;container=1;collapsible=0;recursiveResize=0;verticalAlign=top;spacingTop=36;outlineConnect=0;" parent="1" vertex="1">
                    <mxGeometry x="849" y="40" width="20" height="360" as="geometry"/>
                </mxCell>
                <mxCell id="146" value="" style="html=1;points=[];perimeter=orthogonalPerimeter;" parent="145" vertex="1">
                    <mxGeometry x="5" y="270" width="10" height="30" as="geometry"/>
                </mxCell>
                <mxCell id="147" value="6:SendRequest()" style="html=1;verticalAlign=bottom;endArrow=open;dashed=1;endSize=8;exitX=0;exitY=1.014;exitDx=0;exitDy=0;exitPerimeter=0;entryX=1.1;entryY=0.033;entryDx=0;entryDy=0;entryPerimeter=0;" parent="1" target="146" edge="1">
                    <mxGeometry relative="1" as="geometry">
                        <mxPoint x="965.5" y="310" as="sourcePoint"/>
                        <mxPoint x="860" y="310" as="targetPoint"/>
                    </mxGeometry>
                </mxCell>
                <mxCell id="153" value="8:NotifyExpiration()" style="html=1;verticalAlign=bottom;endArrow=open;dashed=1;endSize=8;entryX=1;entryY=0;entryDx=0;entryDy=0;entryPerimeter=0;" parent="1" target="149" edge="1">
                    <mxGeometry relative="1" as="geometry">
                        <mxPoint x="319" y="670" as="sourcePoint"/>
                        <mxPoint x="80" y="669" as="targetPoint"/>
                    </mxGeometry>
                </mxCell>
            </root>
        </mxGraphModel>
    </diagram>
</mxfile>